<svg width="1024" height="1024" viewBox="0 0 1024 1024" fill="none" xmlns="http://www.w3.org/2000/svg">
<rect width="1024" height="1024" fill="#F9F9F9"/>
<path d="M62 62H963V963H62V62Z" fill="#0C0C0C"/>
<path d="M145.736 632H195.992L216.152 577.856H309.464L329.624 632H379.88L284.552 394.4H241.208L145.736 632ZM232.136 536.96L262.808 457.328L293.624 536.96H232.136ZM415.025 632H461.681V531.632L555.713 632H620.225L504.449 508.736L605.825 394.4H548.801L461.681 493.472V394.4H415.025V632ZM652.119 632H698.775V472.16L801.159 632H847.815V394.4H801.159V554.24L698.775 394.4H652.119V632Z" fill="#F9F9F9"/>
</svg>
